<svg id="ePClGFr0fau1" xmlns="http://www.w3.org/2000/svg" xmlns:xlink="http://www.w3.org/1999/xlink" viewBox="0 0 48 48" shape-rendering="geometricPrecision" text-rendering="geometricPrecision" project-id="ca3d33f99fc24ca9b534fad73a9a01ad" export-id="323c31f20dab4340bcfbc4c43c2081da" cached="false"><g transform="matrix(1.7 0 0 1.7 -16.799898 -16.79958)"><path d="M15.2725,18.763c0-4.8199,3.9072-8.7269,8.7272-8.7269s8.7273,3.907,8.7273,8.7269v13.963h-17.4545v-13.963Z" fill="#a4dddd"/><path d="M22.2547,34.0352l-1.2,2.7c-.12.2701-.0952.5821.0659.83s.4363.397.7317.397h4.296c.2955,0,.5708-.1492.7318-.397s.1859-.5599.0659-.83l-1.2004-2.7h-3.4909Z" fill="#cdeffb" stroke="#bab7fa" stroke-width="0.3"/><path d="M32.7271,20.5088h.8727c1.4461,0,2.6182,1.172,2.6182,2.618v9.5996h-3.4909v-12.2176Z" fill="#a6bfc5"/><path d="M32.7273,32.7266l-1.3627,4.0876c-.0886.2662-.0441.5585.12.7863.164.2278.4276.3622.7082.3622h4.56c.2806,0,.5441-.1349.7078-.3626s.2085-.5201.12-.7863l-1.3624-4.0872h-3.4909Z" fill="#d9fbfb" stroke="#bab7fa" stroke-width="0.1"/><path d="M15.2726,20.5088h-.8727c-1.4461,0-2.6182,1.172-2.6182,2.618v9.5996h3.4909v-12.2176Z" fill="#cfd3d4"/><path d="M15.2725,32.7266l1.3627,4.0876c.0886.2662.0441.5585-.12.7863-.164.2273-.4276.3622-.7082.3622h-4.56c-.2806,0-.5441-.1349-.7078-.3626-.164-.2278-.2085-.5201-.12-.7863l1.3624-4.0872h3.4909Z" fill="#cedbe4" stroke="#c1bfdc" stroke-width="0.3"/><path d="M29.2362,34.9083h-10.4727l-1.7454-2.1817h13.9636l-1.7455,2.1817Z" fill="#9fc3cc"/><path d="M13.9632,34.0352h-.8724v3.0544h.8724v-3.0544Z" transform="translate(0 -0.106658)" fill="#89adb6"/><path d="M34.9085,34.0352h-.8724v3.0544h.8724v-3.0544Z" fill="#4e8491"/><path d="M24.436,34.9072h-.8725v2.1822h.8725v-2.1822Z" transform="translate(0 -0.106458)" fill="#4e8491"/><path d="M23.9997,10.0361c-4.82,0-8.7272,3.907-8.7272,8.7269v13.963h8.7272v-22.6899Z" fill="#e2eef3"/><path d="M29.2361,26.6172h-2.6179v4.363h2.6179v-4.363Z" fill="#fff"/><path d="M27.0544,16.5813h-6.1091l.4364-5.2361h5.2363l.4364,5.2361Z" fill="#059bbf"/><path d="M23.9999,15.4904c.8435,0,1.5273-.6837,1.5273-1.5272s-.6838-1.5272-1.5273-1.5272-1.5272.6838-1.5272,1.5272.6837,1.5272,1.5272,1.5272Z" fill="#3e3e3f"/><path d="M23.9996,15.9267c-1.0825,0-1.9635-.8809-1.9635-1.9634s.881-1.9633,1.9635-1.9633s1.9634.8809,1.9634,1.9633-.8809,1.9634-1.9634,1.9634Zm0-3.4904c-.8421,0-1.5271.685-1.5271,1.527s.685,1.5271,1.5271,1.5271s1.5271-.685,1.5271-1.5271-.685-1.527-1.5271-1.527Z" fill="#40c9e7"/><path d="M29.2364,18.6543c.6629,0,1.2002-.5374,1.2002-1.2002s-.5373-1.2002-1.2002-1.2002-1.2003.5373-1.2003,1.2002.5374,1.2002,1.2003,1.2002Z" fill="#6cb0dc"/><path d="M25.745,26.6172h-3.4906v4.363h3.4906v-4.363Z" fill="rgba(70,5,88,0.87)"/><path d="M32.727,19.6353h-17.4545v.8726h17.4545v-.8726Z" fill="#a6bfc5"/><path d="M29.2362,22.2539h-10.9091v.8727h10.9091v-.8727Z" fill="#059bbf"/><path d="M29.2362,24.4355h-10.9091v.8727h10.9091v-.8727Z" fill="#059bbf"/><path d="M20.9453,26.6172h-2.6182v1.309h2.6182v-1.309Z" fill="#a6bfc5"/><path d="M23.1276,17.4541h-2.1823v1.3093h2.1823v-1.3093Z" fill="#059bbf"/><path d="M19.6361,17.4541h-3.0546v1.309h3.0546v-1.309Z" fill="#059bbf"/><path d="M27.0545,17.4541h-3.0545v1.309h3.0545v-1.309Z" fill="#059bbf"/><path d="M20.9453,28.7988h-2.6182v2.1817h2.6182v-2.1817Z" fill="#a6bfc5"/><path d="M28.3631,27.4902h-.8724v2.6181h.8724v-2.6181Z" fill="#a6bfc5"/><path d="M23.9999,32.7266h-6.9818l1.7454,2.1817h5.2364v-2.1817Z" fill="#b8e6e6"/><path d="M22.4727,13.9632c0,.8435.6837,1.5272,1.5272,1.5272v-3.0544c-.8435,0-1.5272.6838-1.5272,1.5272Z" fill="#5b5c5f"/></g></svg>
